<svg width="67" height="28" viewBox="0 0 67 28" fill="none" xmlns="http://www.w3.org/2000/svg">
<path d="M8.89633 28H58.0722C59.5548 27.9321 62.8131 27.5418 64.9741 25.0897C68.492 21.1018 66.7163 14.4073 64.9741 11.0727C62.8131 6.92364 58.8177 4.43757 54.3616 2.90182C52.9461 7.17818 49.9726 10.9709 45.751 13.3212C46.9739 9.01091 46.6556 4.63273 45.0391 0.840001C42.7524 0.543032 40.5914 0.381818 38.7486 0.254545C37.844 5.60848 34.6192 10.4788 29.5266 13.3212C30.8249 8.68849 30.3391 3.98788 28.4712 0C26.6033 0.0339394 24.5679 0.161212 22.5074 0.424242C21.5358 5.71879 18.3445 10.5212 13.2854 13.3297C14.3491 9.63879 14.2235 5.84606 13.1597 2.45212C8.35189 4.0897 4.16385 6.76242 1.96932 11.0727C0.227103 14.5006 -1.41461 21.1697 1.96932 25.0897C4.05496 27.4739 7.27975 27.8982 8.89633 28Z" fill="#2ED453"/>
</svg>
