<svg width="77" height="61" viewBox="0 0 77 61" fill="none" xmlns="http://www.w3.org/2000/svg">
<path fill-rule="evenodd" clip-rule="evenodd" d="M74.0731 49.2242H72.2842C72.7496 41.0308 70.2676 32.943 65.2936 26.4449C60.3196 19.9469 53.1872 15.4745 45.2053 13.8484C45.4253 12.4516 45.2114 11.0204 44.5928 9.75087C43.9742 8.48136 42.9813 7.43567 41.7499 6.75711C42.2319 6.14225 42.5323 5.40301 42.6167 4.62407C42.701 3.84514 42.566 3.058 42.227 2.35282C41.8881 1.64764 41.3589 1.05293 40.7001 0.636813C40.0413 0.220697 39.2795 0 38.502 0C37.7245 0 36.9627 0.220697 36.3039 0.636813C35.6451 1.05293 35.1159 1.64764 34.7769 2.35282C34.438 3.058 34.3029 3.84514 34.3873 4.62407C34.4717 5.40301 34.7721 6.14225 35.254 6.75711C34.0218 7.43465 33.028 8.48017 32.4093 9.74997C31.7906 11.0198 31.5773 12.4515 31.7987 13.8484C23.8158 15.4732 16.6823 19.9451 11.7075 26.4434C6.73266 32.9416 4.25045 41.0301 4.71646 49.2242H2.92754C2.52729 49.2237 2.13121 49.306 1.76381 49.4661C1.39642 49.6261 1.06554 49.8604 0.791665 50.1546C0.517794 50.4487 0.306764 50.7964 0.171647 51.1761C0.0365296 51.5558 -0.0197982 51.9594 0.00615235 52.3619C0.0072484 53.6449 0.513458 54.875 1.41365 55.7822C2.31385 56.6895 3.53446 57.1996 4.80753 57.2007H11.4707V59.787C11.4705 60.1083 11.5969 60.4166 11.8221 60.6441C12.0473 60.8715 12.353 60.9996 12.6718 61H64.328C64.4861 61.0002 64.6427 60.969 64.7888 60.9082C64.9349 60.8474 65.0677 60.7581 65.1796 60.6455C65.2915 60.533 65.3802 60.3993 65.4408 60.2521C65.5013 60.1049 65.5325 59.9471 65.5325 59.7878V57.2016H72.1923C73.4657 57.2016 74.687 56.6917 75.5874 55.7843C76.4878 54.8769 76.9937 53.6461 76.9937 52.3628C77.02 51.9602 76.9639 51.5565 76.829 51.1767C76.6941 50.7969 76.4831 50.4492 76.2093 50.1549C75.9354 49.8607 75.6045 49.6264 75.237 49.4664C74.8696 49.3064 74.4734 49.2234 74.0731 49.2242ZM34.889 10.2677C35.2907 9.67583 35.8296 9.19159 36.459 8.85698C37.0883 8.52237 37.7892 8.34748 38.5007 8.34748C39.2123 8.34748 39.9132 8.52237 40.5425 8.85698C41.1719 9.19159 41.7108 9.67583 42.1125 10.2677C42.7464 11.1983 43.0032 12.3378 42.8303 13.453C39.9553 13.0792 37.0446 13.0792 34.1696 13.453C33.9995 12.3377 34.2567 11.199 34.889 10.2677ZM72.1923 54.7755H4.80753C4.17355 54.7731 3.56626 54.518 3.1182 54.066C2.67014 53.614 2.41769 53.0017 2.41594 52.3628C2.41594 51.8906 2.58979 51.6494 2.93002 51.6494H74.0731C74.4158 51.6494 74.5897 51.8906 74.5897 52.3628C74.5879 53.0027 74.3347 53.6158 73.8854 54.068C73.4361 54.5202 72.8273 54.7746 72.1923 54.7755Z" fill="#F23B5C"/>
</svg>
