<?xml version="1.0" encoding="UTF-8"?>
<svg version="1.1" xmlns="http://www.w3.org/2000/svg" width="355" height="483">
<path d="M0 0 C5.46109822 5.11018428 9.76592428 10.66362429 10.10375977 18.36547852 C10.09143311 19.15365967 10.07910645 19.94184082 10.06640625 20.75390625 C10.05202515 21.95188843 10.05202515 21.95188843 10.03735352 23.17407227 C10.02502686 23.77662842 10.0127002 24.37918457 10 25 C10.82725586 24.97381592 11.65451172 24.94763184 12.50683594 24.9206543 C16.25436418 24.81673169 20.0015895 24.75168511 23.75 24.6875 C25.70292969 24.6246582 25.70292969 24.6246582 27.6953125 24.56054688 C28.94570312 24.54443359 30.19609375 24.52832031 31.484375 24.51171875 C32.63647461 24.48553467 33.78857422 24.45935059 34.97558594 24.43237305 C38 25 38 25 40.40722656 26.90551758 C42.09232675 30.17937486 42.17388501 31.60413142 42.09954834 35.19340515 C42.08517605 36.09360728 42.07080376 36.99380941 42.05599594 37.9212904 C42.02827795 38.95025165 42.02827795 38.95025165 42 40 C43.31687302 39.99111755 44.63374603 39.98223511 45.99052429 39.9730835 C58.39462938 39.8920326 70.79868082 39.83205122 83.20299053 39.79275131 C89.5803448 39.77186766 95.95748547 39.74353517 102.3347168 39.69824219 C108.48793961 39.65481317 114.64095683 39.63086875 120.79432106 39.62049103 C123.1431076 39.61309445 125.49188276 39.59865086 127.84058189 39.57707977 C131.12793763 39.54808581 134.41444148 39.54404244 137.7019043 39.54589844 C138.6751062 39.53151733 139.64830811 39.51713623 140.65100098 39.50231934 C144.96700209 39.52872444 147.34107658 39.59294734 151.08113098 41.90338135 C154.41477099 45.54582477 154.12595018 47.95168286 154.12863445 52.8254528 C154.13038749 53.5390558 154.13214053 54.2526588 154.13394669 54.98788613 C154.13863619 57.40339118 154.13613366 59.81883682 154.13371277 62.23434448 C154.13557926 63.97388608 154.13787931 65.71342726 154.14057809 67.45296776 C154.14672254 72.25219552 154.1465594 77.05140592 154.14538372 81.85063672 C154.14518037 87.01909993 154.15069209 92.18755747 154.15544128 97.35601807 C154.16376289 107.48914398 154.16649681 117.62226409 154.16705366 127.75539313 C154.16752811 135.98853203 154.16957929 144.221669 154.17275429 152.45480728 C154.18156501 175.77516629 154.18617302 199.09552069 154.18542381 222.41588138 C154.18536388 224.30337703 154.18536388 224.30337703 154.18530273 226.22900391 C154.18526185 227.4888631 154.18522097 228.74872228 154.18517885 230.04675902 C154.18477227 250.4716946 154.1943438 270.89661176 154.2084411 291.32154201 C154.22278756 312.27205586 154.22971224 333.22256072 154.22884732 354.17307961 C154.22851475 365.9439046 154.23128806 377.71471028 154.24202538 389.48553085 C154.25110766 399.50658674 154.25332442 409.52761457 154.24651595 419.54867278 C154.2432392 424.66502509 154.24323546 429.78132348 154.2518692 434.89767075 C154.25968441 439.57693616 154.2583542 444.25610446 154.24958507 448.93536736 C154.24803902 450.63254156 154.24990737 452.32972284 154.25544515 454.02688871 C154.262452 456.32566676 154.25725388 458.62409905 154.24888897 460.92286491 C154.24921502 462.84186413 154.24921502 462.84186413 154.24954766 464.799631 C154.01131809 467.85484917 153.73324538 469.51140446 152 472 C148.56590371 474.28939753 147.32778516 474.25178644 143.28806496 474.25726891 C142.09037062 474.2637178 140.89267629 474.27016669 139.65868819 474.276811 C138.32288358 474.27386848 136.98707939 474.27073302 135.65127563 474.26742554 C134.23744093 474.27116009 132.82360829 474.27576083 131.40977895 474.28115618 C127.5154467 474.29342574 123.62120009 474.29312108 119.72685289 474.29076743 C115.53043821 474.29036026 111.33405135 474.30138884 107.13764954 474.31088257 C98.91268829 474.32751514 90.68775571 474.33299313 82.46277906 474.33410732 C75.77905939 474.33505672 69.09534921 474.33916156 62.41163254 474.34550858 C43.47390825 474.36312704 24.53620665 474.37234649 5.5984741 474.37084763 C4.57694444 474.37076772 3.55541479 474.3706878 2.50292969 474.37060547 C1.48015688 474.37052371 0.45738407 474.37044195 -0.59638186 474.37035771 C-17.17625943 474.3695446 -33.75604619 474.3886868 -50.33589749 474.4168822 C-67.34835979 474.44558567 -84.36077777 474.4594239 -101.37326491 474.45769465 C-110.92916358 474.45702987 -120.48496706 474.46256035 -130.04084396 474.48405075 C-138.17636196 474.5022292 -146.31174162 474.50663743 -154.44727109 474.4930319 C-158.59980463 474.48648534 -162.75207252 474.4864455 -166.90458107 474.5037384 C-170.70442134 474.51940018 -174.50378382 474.51667688 -178.30361195 474.49917014 C-180.33282252 474.49462089 -182.36204751 474.50981149 -184.39120138 474.52564943 C-185.59411121 474.51645184 -186.79702103 474.50725425 -188.03638268 474.49777794 C-189.07481044 474.49821267 -190.11323821 474.49864741 -191.18313348 474.49909532 C-194.7599757 473.86534672 -196.43347194 472.52739907 -199 470 C-200.16519494 466.50441519 -200.12781128 463.77603681 -200.13142776 460.08552742 C-200.1334804 459.37444692 -200.13553303 458.66336642 -200.13764787 457.93073803 C-200.1433366 455.52982749 -200.14185832 453.12897398 -200.14044189 450.72805786 C-200.14302445 448.99661533 -200.1460373 447.2651734 -200.1494453 445.5337323 C-200.15753129 440.76149943 -200.15930575 435.98928159 -200.16004276 431.21704268 C-200.16189052 426.07584334 -200.16943638 420.93465185 -200.17617798 415.79345703 C-200.18977263 404.54572485 -200.19578763 393.29799623 -200.20018864 382.05025721 C-200.20294884 375.0313767 -200.20718576 368.01249758 -200.21169281 360.99361801 C-200.22388638 341.57210184 -200.23418589 322.15058677 -200.2375679 302.72906685 C-200.23778747 301.4855333 -200.23800703 300.24199974 -200.23823325 298.96078335 C-200.23845153 297.7142268 -200.23866981 296.46767024 -200.2388947 295.18333924 C-200.23933817 292.65721965 -200.23978474 290.13110006 -200.24023438 287.60498047 C-200.2404558 286.35193032 -200.24067723 285.09888017 -200.24090537 283.80785881 C-200.24485531 263.49358468 -200.26231492 243.17934638 -200.2855939 222.86508609 C-200.3092843 202.02414684 -200.32176868 181.18322558 -200.32293582 160.34227264 C-200.32385382 148.63457595 -200.32963764 136.92692595 -200.34775543 125.2192421 C-200.36312517 115.25202921 -200.36829538 105.28487745 -200.36001733 95.31765498 C-200.35609987 90.22949913 -200.3570937 85.14146649 -200.37107468 80.05332565 C-200.38374793 75.39868092 -200.38267433 70.7442528 -200.37048396 66.08960865 C-200.36851552 64.40253907 -200.37165792 62.71545449 -200.38032833 61.02840604 C-200.39134457 58.74072328 -200.38398769 56.45381536 -200.3719368 54.16615486 C-200.37253389 52.89381937 -200.37313097 51.62148388 -200.37374616 50.31059277 C-199.97003978 46.73461639 -199.13965573 44.86008035 -197 42 C-194.15696298 40.06458878 -191.89221884 39.75144024 -188.49481201 39.75949097 C-187.59741302 39.75674164 -186.70001404 39.75399231 -185.77542114 39.75115967 C-184.79862396 39.75835022 -183.82182678 39.76554077 -182.81542969 39.77294922 C-181.7809671 39.77265717 -180.74650452 39.77236511 -179.68069458 39.77206421 C-176.26100277 39.77345769 -172.84152876 39.78901996 -169.421875 39.8046875 C-167.05104695 39.80841756 -164.68021735 39.81126456 -162.30938721 39.81326294 C-156.06880438 39.82089992 -149.82831461 39.84054908 -143.58776855 39.8626709 C-137.21998351 39.88312786 -130.85218343 39.89226434 -124.484375 39.90234375 C-111.98954244 39.92379482 -99.49477896 39.95793164 -87 40 C-87.01863728 39.23667484 -87.03727455 38.47334969 -87.05647659 37.68689346 C-87.07822008 36.19134745 -87.07822008 36.19134745 -87.10040283 34.66558838 C-87.11904011 33.67538822 -87.13767738 32.68518806 -87.15687943 31.66498184 C-87 29 -87 29 -85.39355469 26.35058594 C-82.34207697 24.62876069 -80.20360543 24.4566718 -76.703125 24.390625 C-75.49785156 24.35839844 -74.29257813 24.32617188 -73.05078125 24.29296875 C-71.79652344 24.27878906 -70.54226562 24.26460937 -69.25 24.25 C-67.98027344 24.22035156 -66.71054688 24.19070312 -65.40234375 24.16015625 C-62.26816515 24.08946049 -59.13473044 24.03675988 -56 24 C-55.95174072 23.33830811 -55.90348145 22.67661621 -55.85375977 21.99487305 C-55.10573138 13.11031009 -52.91988639 6.3688657 -46.25 0.125 C-32.6074371 -10.80968179 -13.72809633 -10.99386967 0 0 Z M-36 15 C-38.46540347 18.90095486 -37.95843319 21.52731179 -37 26 C-36.649375 26.680625 -36.29875 27.36125 -35.9375 28.0625 C-34.08511865 31.89075479 -34.78286981 36.04432688 -36 40 C-39.64658477 41.11865755 -43.1536151 41.20370892 -46.953125 41.31640625 C-47.61334656 41.33718735 -48.27356812 41.35796844 -48.95379639 41.37937927 C-51.05243015 41.44450147 -53.15118372 41.50358502 -55.25 41.5625 C-56.67709547 41.60572079 -58.10417905 41.6493362 -59.53125 41.69335938 C-63.02071259 41.80088351 -66.51027257 41.90023285 -70 42 C-70 46.62 -70 51.24 -70 56 C-38.65 56 -7.3 56 25 56 C25 51.38 25 46.76 25 42 C21.71289062 41.94392578 21.71289062 41.94392578 18.359375 41.88671875 C16.23118247 41.84047395 14.10316377 41.78925134 11.97509766 41.73754883 C10.49896862 41.70434645 9.02271406 41.67629983 7.54638672 41.65356445 C5.42100668 41.61993049 3.29677196 41.56761481 1.171875 41.51171875 C-0.1059082 41.48553467 -1.38369141 41.45935059 -2.70019531 41.43237305 C-6.15635298 40.97951309 -7.58333474 40.46099765 -10 38 C-11.79050917 32.74783978 -10.147798 29.89697944 -8 25 C-7.34782038 20.35322019 -7.57932062 18.63702878 -10.1875 14.6875 C-14.93789854 10.14823028 -18.99763252 9.48836954 -25.42578125 9.61328125 C-29.61797178 10.24306405 -32.91201139 12.12393218 -36 15 Z M-150 58 C-150 179.11 -150 300.22 -150 425 C-87.3 425 -24.6 425 40 425 C40.33 405.86 40.66 386.72 41 367 C43 363 43 363 45 362 C64.8 361.67 84.6 361.34 105 361 C105 261.01 105 161.02 105 58 C84.21 58 63.42 58 42 58 C41.67 61.3 41.34 64.6 41 68 C39.14601135 71.08555603 39.14601135 71.08555603 36 73 C32.21419165 73.70414647 28.50557139 73.67272842 24.66381836 73.63110352 C23.51859207 73.63825882 22.37336578 73.64541412 21.19343567 73.65278625 C17.40849912 73.66969305 13.62474353 73.65025835 9.83984375 73.62890625 C7.21098228 73.6297347 4.58212085 73.63219316 1.95326233 73.63621521 C-3.55546674 73.64073274 -9.06385587 73.62488644 -14.57250977 73.59692383 C-20.93871739 73.56485709 -27.30431255 73.56489462 -33.67056376 73.5821386 C-39.79970003 73.59800775 -45.928576 73.59117132 -52.05770683 73.57420158 C-54.66406183 73.56901189 -57.27043448 73.56951107 -59.87678719 73.57574654 C-63.51598431 73.58118493 -67.15413493 73.56086611 -70.79321289 73.53344727 C-71.87436371 73.53997314 -72.95551453 73.54649902 -74.06942749 73.55322266 C-81.09237414 73.46306092 -81.09237414 73.46306092 -84.63792419 71.65415955 C-86 69 -86 69 -87 58 C-107.79 58 -128.58 58 -150 58 Z M-182 58 C-182 189.67 -182 321.34 -182 457 C-77.06 457 27.88 457 136 457 C136 325.33 136 193.66 136 58 C131.38 58 126.76 58 122 58 C121.99780016 60.42822506 121.99780016 60.42822506 121.99555588 62.90550518 C121.95987045 101.31441494 121.90365327 139.72324764 121.82207905 178.13208849 C121.81206133 182.85734579 121.80221725 187.58260344 121.79248047 192.30786133 C121.78956841 193.71895948 121.78956841 193.71895948 121.78659752 195.15856466 C121.75555826 210.40001943 121.7385915 225.64145912 121.72680578 240.88293954 C121.71440419 256.5167283 121.68692527 272.15043787 121.64538693 287.78417665 C121.62022306 297.43464429 121.60688482 307.08498062 121.60857043 316.73548154 C121.60860013 323.34904219 121.59401311 329.96246888 121.56783572 336.57597735 C121.55315677 340.39430792 121.54501483 344.21236378 121.55419731 348.03071785 C121.56397734 352.16744456 121.54302533 356.30344115 121.51898193 360.44010925 C121.53062256 362.25673601 121.53062256 362.25673601 121.54249835 364.1100623 C121.45860545 372.22428623 121.45860545 372.22428623 119.14334488 376.14046192 C117.01204869 377.98954672 114.84614295 379.78691623 112.640625 381.546875 C110.04275789 383.84784301 107.89780308 386.5216187 105.65234375 389.16015625 C103.64066417 391.40011153 101.3487285 393.1210172 99 395 C97.81480123 396.31688753 96.64973284 397.65203736 95.5 399 C92.87424305 402.07847367 90.16134342 404.47092526 87 407 C85.81480123 408.31688753 84.64973284 409.65203736 83.5 411 C80.87424305 414.07847367 78.16134342 416.47092526 75 419 C73.83583553 420.29626824 72.69168306 421.61064813 71.5625 422.9375 C68.63704739 426.36952449 65.47370139 429.11756693 62 432 C60.44280225 433.77854506 58.95167287 435.5898179 57.4921875 437.44921875 C54.59374888 440.46147041 52.39359418 440.97320686 48.17965794 441.26006222 C46.5959552 441.27497544 45.01212603 441.2788329 43.42835999 441.27415466 C42.55458991 441.27939134 41.68081983 441.28462802 40.78057188 441.29002339 C37.84723948 441.30504768 34.91408115 441.30572907 31.98071289 441.30639648 C29.87988489 441.31401623 27.77905969 441.32244341 25.67823792 441.33161926 C19.96757202 441.35358688 14.25695968 441.36236599 8.5462563 441.36744571 C4.98024244 441.37108601 1.41424268 441.3773243 -2.15176582 441.3844471 C-14.58710473 441.40894755 -27.02240187 441.4219952 -39.45776367 441.42553711 C-51.05831898 441.42917486 -62.65861012 441.45908604 -74.25908464 441.50094169 C-84.21246118 441.53559853 -94.16574996 441.55108474 -104.11918646 441.55178314 C-110.06679584 441.5525774 -116.01413611 441.56138476 -121.96168327 441.58978081 C-127.55385121 441.61588301 -133.14552537 441.61821044 -138.73772621 441.60212517 C-140.79165088 441.60030454 -142.84560344 441.60705642 -144.89946747 441.62294388 C-147.7006936 441.64329389 -150.50017397 441.6329182 -153.30137634 441.61473083 C-154.11674659 441.6279308 -154.93211684 441.64113077 -155.77219528 441.65473074 C-159.61596342 441.59761222 -161.65374311 441.27260856 -164.70720792 438.86861122 C-167.46414279 435.4192909 -167.62651814 433.84724488 -167.63085651 429.48139477 C-167.63831411 428.83742029 -167.6457717 428.19344582 -167.65345529 427.52995697 C-167.67238835 425.36884837 -167.65570643 423.20949308 -167.63923645 421.04838562 C-167.64554715 419.48488576 -167.65404941 417.92139347 -167.66455668 416.35791618 C-167.68709198 412.05924502 -167.6784865 407.76110977 -167.6648711 403.46242177 C-167.65562097 398.82779027 -167.6751433 394.19327048 -167.69119263 389.55867004 C-167.7150537 381.52816926 -167.72063607 373.49782198 -167.71384621 365.46729088 C-167.70405556 353.85648888 -167.72176539 342.24585736 -167.74621352 330.63508294 C-167.78512969 311.79797798 -167.80176763 292.96092169 -167.80444336 274.1237793 C-167.80709037 255.8239492 -167.8201998 237.524176 -167.84741211 219.22436523 C-167.84908549 218.09659452 -167.85075887 216.96882381 -167.85248295 215.80687823 C-167.86094235 210.1492522 -167.86960777 204.49162651 -167.87837565 198.83400095 C-167.95086125 151.88934321 -167.98684131 104.94470903 -168 58 C-172.62 58 -177.24 58 -182 58 Z M58 378 C58 388.89 58 399.78 58 411 C62.13918334 408.93040833 63.26575344 407.56280613 66 404 C67.6454378 402.31237149 69.31288577 400.6459651 71 399 C71.825 398.175 72.65 397.35 73.5 396.5 C74.325 395.675 75.15 394.85 76 394 C76.825 393.154375 77.65 392.30875 78.5 391.4375 C81 389 81 389 83.5 387.125 C86.77455809 384.51644325 86.77455809 384.51644325 91 378 C80.11 378 69.22 378 58 378 Z " fill="#000000" transform="translate(201,9)"/>
<path d="M0 0 C1.10756653 -0.00571014 2.21513306 -0.01142029 3.35626221 -0.01730347 C4.57191864 -0.01842133 5.78757507 -0.01953918 7.04006958 -0.02069092 C8.31994751 -0.02565582 9.59982544 -0.03062073 10.91848755 -0.03573608 C14.43092978 -0.04885176 17.9433529 -0.0553033 21.45581579 -0.05974674 C23.65041835 -0.06267854 25.8450157 -0.06678353 28.03961563 -0.07125092 C34.90656601 -0.08492305 41.77350447 -0.09459135 48.64046752 -0.09845281 C56.56653352 -0.10293439 64.49242713 -0.12048801 72.4184407 -0.1494534 C78.54592075 -0.1710687 84.67335229 -0.18115699 90.80087006 -0.18249393 C94.46025922 -0.18354198 98.11948628 -0.18944978 101.7788353 -0.20731354 C105.86081154 -0.22685312 109.94242677 -0.22250589 114.02444458 -0.21600342 C115.23605255 -0.2252182 116.44766052 -0.23443298 117.69598389 -0.243927 C118.80919006 -0.23835785 119.92239624 -0.2327887 121.06933594 -0.22705078 C122.03424391 -0.22851734 122.99915188 -0.2299839 123.99329948 -0.2314949 C127.83841698 0.3044691 130.63113283 1.82887254 133.03665161 4.89044189 C133.99000705 8.32252149 133.57819818 10.71866805 132.66165161 14.14044189 C130.4407695 16.90177025 128.5960827 18.00886475 125.0776062 18.50430107 C121.66973559 18.65672633 118.28383092 18.6690256 114.87258911 18.64215088 C113.57291199 18.64755386 112.27323486 18.65295685 110.93417358 18.65852356 C107.37622581 18.67246749 103.81876219 18.66131633 100.26084137 18.64481235 C96.53425227 18.63094489 92.8076908 18.63742385 89.08108521 18.64094543 C82.82335626 18.64364623 76.56581926 18.63018336 70.30813599 18.60699463 C63.07748898 18.5803856 55.84716288 18.57863822 48.61648369 18.59038299 C41.65552548 18.60116922 34.69468315 18.59496711 27.73373413 18.58082771 C24.77370458 18.57507521 21.81376002 18.57514478 18.85372925 18.57989311 C14.71921371 18.5855597 10.58517581 18.56632763 6.45071411 18.54449463 C5.22354675 18.54899628 3.99637939 18.55349792 2.73202515 18.55813599 C1.60488098 18.54823135 0.47773682 18.53832672 -0.68356323 18.52812195 C-1.66062225 18.52569205 -2.63768127 18.52326216 -3.64434814 18.52075863 C-6.84220972 18.06931091 -8.73709225 17.02539874 -11.33834839 15.14044189 C-12.93580718 11.94552431 -12.84651681 8.608348 -12.33834839 5.14044189 C-8.91414306 0.5354761 -5.49137215 0.0169423 0 0 Z " fill="#000000" transform="translate(157.33834838867188,208.85955810546875)"/>
<path d="M0 0 C1.15101196 -0.01272446 2.30202393 -0.02544891 3.48791504 -0.03855896 C4.74672989 -0.03203308 6.00554474 -0.0255072 7.30250549 -0.01878357 C8.64472909 -0.0258427 9.98694473 -0.03458769 11.32914734 -0.04489136 C14.9718224 -0.06739726 18.61406322 -0.06444296 22.25678134 -0.05556989 C25.29858254 -0.05046014 28.34030213 -0.05775247 31.38209492 -0.06504196 C38.55859989 -0.08204499 45.73489226 -0.07847146 52.91139221 -0.06175232 C60.31311938 -0.04483135 67.71425679 -0.06066376 75.11591953 -0.0929752 C81.47275799 -0.11967341 87.82941288 -0.12694651 94.18630177 -0.11846012 C97.98211667 -0.11353136 101.77757674 -0.11574315 105.57334709 -0.13624763 C109.14326759 -0.15460877 112.71234015 -0.14864234 116.28221512 -0.12404823 C118.21472217 -0.11665607 120.14727435 -0.13389284 122.07971191 -0.15187073 C131.52801832 -0.04825207 131.52801832 -0.04825207 134.63394165 2.86660767 C136.75822015 6.14157869 137.07017885 7.68212453 136.35157776 11.5146637 C134.55164001 14.21457031 133.26780476 16.0565502 130.35157776 17.5146637 C128.58679162 17.61219223 126.81830343 17.64535746 125.05082703 17.64837646 C123.92636169 17.65264145 122.80189636 17.65690643 121.64335632 17.66130066 C120.40383209 17.66084747 119.16430786 17.66039429 117.88722229 17.65992737 C116.58637695 17.66328598 115.28553162 17.66664459 113.94526672 17.67010498 C110.37084573 17.67895558 106.79644866 17.68128356 103.22201777 17.68192077 C100.23989797 17.68286923 97.25778377 17.68654686 94.27566612 17.69009286 C87.24025749 17.69824167 80.20486166 17.70067673 73.16944885 17.69996643 C65.90880377 17.69936571 58.64823301 17.70991531 51.38760674 17.72571009 C45.15740328 17.73878102 38.92722413 17.74415051 32.69700706 17.74351102 C28.97451854 17.74325587 25.25209601 17.74611614 21.52962112 17.75668907 C17.37793643 17.76815857 13.22641841 17.76362598 9.07472229 17.75758362 C7.83924652 17.76320313 6.60377075 17.76882263 5.33085632 17.77461243 C4.20075134 17.77041794 3.07064636 17.76622345 1.90629578 17.76190186 C0.92441851 17.76244662 -0.05745876 17.76299139 -1.06908989 17.76355267 C-3.7941991 17.50059717 -5.37167892 17.01562351 -7.64842224 15.5146637 C-9.79133243 12.30029841 -9.94868015 10.34039761 -10.10935974 6.54981995 C-8.89852222 1.20366443 -4.95390437 0.01390377 0 0 Z " fill="#000000" transform="translate(154.64842224121094,289.48533630371094)"/>
<path d="M0 0 C1.16087128 -0.01272446 2.32174255 -0.02544891 3.51779175 -0.03855896 C4.78752838 -0.03203308 6.05726501 -0.0255072 7.36547852 -0.01878357 C8.71917664 -0.02584255 10.07286687 -0.03458748 11.42654419 -0.04489136 C15.10014176 -0.06739674 18.77330874 -0.06444339 22.44694901 -0.05556989 C25.51369752 -0.05046094 28.58036505 -0.05775167 31.64710522 -0.06504196 C38.8811011 -0.0820442 46.11488605 -0.07847151 53.34887695 -0.06175232 C60.81310617 -0.04482418 68.27675087 -0.0606738 75.74091625 -0.0929752 C82.14954298 -0.11965852 88.55798761 -0.12695076 94.96666431 -0.11846012 C98.79430426 -0.1135279 102.62159236 -0.1157621 106.44918823 -0.13624763 C110.04783075 -0.15458589 113.64563127 -0.14867038 117.24422836 -0.12404823 C119.19481949 -0.11664282 121.14545529 -0.1339096 123.09597778 -0.15187073 C124.8372847 -0.13288979 124.8372847 -0.13288979 126.61376953 -0.11352539 C127.62254654 -0.11293908 128.63132355 -0.11235277 129.67066956 -0.1117487 C133.30403682 0.75160505 134.34799861 2.41838621 136.30688477 5.5146637 C136.96111145 9.44002379 136.66031792 10.96623295 134.49438477 14.3271637 C131.18148773 17.64006073 128.45793742 17.64125674 123.9752655 17.65510559 C122.86914413 17.66081573 121.76302277 17.66652588 120.62338257 17.67240906 C119.40929718 17.67352692 118.19521179 17.67464478 116.94433594 17.67579651 C115.02692848 17.68324387 115.02692848 17.68324387 113.07078552 17.69084167 C109.56240825 17.70395814 106.05405011 17.71040922 102.54565215 17.71485233 C100.35305191 17.71778442 98.16045688 17.7218895 95.96785927 17.72635651 C89.10571224 17.74002977 82.24357716 17.74969713 75.38141745 17.7535584 C67.46385142 17.75803817 59.5464581 17.7755829 51.62894458 17.80455899 C45.5065444 17.82618651 39.38419278 17.83626326 33.26175481 17.83759952 C29.60624603 17.83864683 25.95089965 17.84453874 22.29543114 17.86241913 C18.21605348 17.88198488 14.13703659 17.87760661 10.05761719 17.87110901 C8.84960449 17.88032379 7.6415918 17.88953857 6.39697266 17.89903259 C-3.98234293 17.84717095 -3.98234293 17.84717095 -8.69311523 14.5146637 C-10.25782756 11.38523904 -10.39013481 7.90384146 -9.69311523 4.5146637 C-6.68501133 0.73880093 -4.77308427 0.0132811 0 0 Z " fill="#000000" transform="translate(154.693115234375,129.48533630371094)"/>
<path d="M0 0 C5.87436505 5.03162913 10.3383372 9.95946751 11.0625 17.8984375 C11.37644722 25.81956735 9.69039112 31.54662069 4.8515625 37.8359375 C-0.15480973 43.21276011 -6.98941462 45.6599633 -14.2734375 46.0234375 C-22.26841702 45.12077852 -28.82366494 42.8487529 -34.1484375 36.5859375 C-38.98791345 29.62740108 -39.07950025 21.79092795 -38.1484375 13.5859375 C-36.42905575 6.90184095 -31.75629359 2.36774793 -26.1484375 -1.4140625 C-17.70474704 -5.91427115 -7.8417724 -5.58282562 0 0 Z M-21.1484375 17.5859375 C-21.71742396 20.99985627 -21.54090323 22.82166212 -19.9609375 25.8984375 C-17.63293658 28.06588664 -16.3267156 28.51026421 -13.1484375 28.5859375 C-9.43582523 26.83480225 -9.43582523 26.83480225 -7.1484375 23.5859375 C-6.75477491 19.9642417 -6.69618265 18.22244433 -8.8359375 15.2109375 C-11.02629812 13.44215903 -11.02629812 13.44215903 -13.5859375 13.0859375 C-17.10229058 13.77205517 -18.72748659 14.95747652 -21.1484375 17.5859375 Z " fill="#000000" transform="translate(104.1484375,357.4140625)"/>
<path d="M0 0 C6.73235664 4.10544563 10.95766103 9.8729831 13.4375 17.3125 C14.19816392 25.54814976 12.9234741 31.6900806 8.25 38.5 C2.54765023 44.20234977 -3.14496022 47.37701972 -11.25 47.625 C-18.23217048 47.54273584 -23.14976353 44.90581654 -28.875 41.125 C-34.30799197 35.43931073 -35.81129367 30.07089045 -36.0625 22.25 C-35.82570261 14.67248348 -34.03267777 10.33160616 -29.3125 4.5625 C-20.98567517 -2.25035668 -10.23073815 -4.75622551 0 0 Z M-16.9375 16.9375 C-19.04956506 20.02436432 -19.17445145 21.6407913 -18.5625 25.3125 C-17.0625 27.8125 -17.0625 27.8125 -14.5625 29.3125 C-10.8907913 29.92445145 -9.27436432 29.79956506 -6.1875 27.6875 C-4.07543494 24.60063568 -3.95054855 22.9842087 -4.5625 19.3125 C-6.0625 16.8125 -6.0625 16.8125 -8.5625 15.3125 C-12.2342087 14.70054855 -13.85063568 14.82543494 -16.9375 16.9375 Z " fill="#000000" transform="translate(101.5625,275.6875)"/>
<path d="M0 0 C2.96600589 2.58574872 3.84398007 4.3879218 4.8125 8.1875 C3.51247616 14.28761187 -0.67695295 17.72962362 -5 22 C-6.23095165 23.23128825 -7.46138979 24.46309002 -8.69140625 25.6953125 C-10.65816892 27.66232092 -12.62701428 29.62699613 -14.6027832 31.58496094 C-18.4666646 35.42182906 -22.20346007 39.30735556 -25.703125 43.484375 C-28.94548692 47.27364133 -30.72393684 48.39307269 -35.8671875 49.1796875 C-41.48575654 48.7063282 -44.98300537 44.16259057 -48.5 40.1875 C-48.96019531 39.67896484 -49.42039062 39.17042969 -49.89453125 38.64648438 C-51.27737146 37.10977884 -52.63876132 35.55584087 -54 34 C-54.71144165 33.21834473 -54.71144165 33.21834473 -55.43725586 32.42089844 C-59.69114941 27.61340044 -59.69114941 27.61340044 -59.5625 23.875 C-59 20 -59 20 -57.375 17.5625 C-54.4340868 15.62768868 -52.52349544 15.07190807 -49 15 C-43.69750809 17.09308891 -39.87569196 21.95120021 -36 26 C-27.89757475 19.37074298 -20.16371976 11.96302627 -13.5 3.875 C-9.26594785 -0.99415998 -6.30483876 -1.6887961 0 0 Z " fill="#000000" transform="translate(125,194)"/>
<path d="M0 0 C3.11898986 2.71911937 3.89409552 4.35280593 4.5625 8.4375 C3.87241689 12.80802639 2.04417136 15.00844395 -1 18 C-2.10794922 19.11181641 -2.10794922 19.11181641 -3.23828125 20.24609375 C-5.27968318 22.28172085 -7.32546906 24.31243728 -9.375 26.33984375 C-10.58337296 27.53902257 -11.79170562 28.73824201 -13 29.9375 C-13.60328125 30.53240234 -14.2065625 31.12730469 -14.828125 31.74023438 C-17.64418278 34.54098749 -20.32872055 37.33941336 -22.8125 40.44140625 C-23.534375 41.28574219 -24.25625 42.13007813 -25 43 C-25.66 43 -26.32 43 -27 43 C-27.2475 43.61875 -27.495 44.2375 -27.75 44.875 C-29.2908453 47.49443701 -30.08980346 48.13480643 -33 49 C-38.95507811 49.11452073 -41.87821457 46.94003779 -46.015625 43.03515625 C-48.60043432 40.38420024 -51.08017967 37.67510575 -53.45703125 34.8359375 C-54.71933952 33.33395045 -56.06783762 31.90478192 -57.4375 30.5 C-59.79893062 26.72171101 -59.56153595 24.42209561 -59 20 C-57.38115997 17.18462603 -56.1623818 16.35510645 -53.08203125 15.4140625 C-50.34331494 15.05536337 -48.65041632 15.15612711 -46 16 C-42.25528358 18.98952326 -39.11010662 22.36396721 -36 26 C-29.36543628 20.49472372 -22.94295038 14.69755305 -17.5625 7.9375 C-17.046875 7.298125 -16.53125 6.65875 -16 6 C-15.34 6 -14.68 6 -14 6 C-13.6596875 5.1028125 -13.6596875 5.1028125 -13.3125 4.1875 C-10.05498774 -1.24168709 -5.7867362 -1.68341417 0 0 Z " fill="#000000" transform="translate(125,114)"/>
<path d="M0 0 C1.07388474 -0.0131424 1.07388474 -0.0131424 2.16946411 -0.02655029 C4.53156479 -0.04852376 6.8917872 -0.03400118 9.25390625 -0.01708984 C10.89770873 -0.02045863 12.54150878 -0.02531177 14.18530273 -0.03158569 C17.62865946 -0.03895416 21.07136721 -0.0282531 24.51464844 -0.00488281 C28.9269323 0.02360585 33.33769563 0.00720161 37.74992371 -0.02274513 C41.14379316 -0.04081936 44.53730252 -0.03505971 47.93118286 -0.02210617 C49.55787333 -0.01877246 51.18459658 -0.0228581 52.81124878 -0.03450394 C55.0859831 -0.04721589 57.35826106 -0.02783637 59.6328125 0 C61.57329468 0.00596695 61.57329468 0.00596695 63.55297852 0.01205444 C66.81640625 0.64697266 66.81640625 0.64697266 69.23022461 2.96865845 C71.33728075 6.52648453 71.47067636 8.57595866 70.81640625 12.64697266 C68.21127004 15.98295038 66.71953929 17.47326432 62.51538086 18.28189087 C61.26249268 18.28586884 60.00960449 18.2898468 58.71875 18.29394531 C58.02379425 18.30270691 57.3288385 18.31146851 56.61282349 18.32049561 C54.32587413 18.3424221 52.04087369 18.32796365 49.75390625 18.31103516 C48.15876903 18.3144053 46.56363431 18.31925958 44.96850586 18.32553101 C41.62947073 18.33289309 38.29110553 18.32221917 34.95214844 18.29882812 C30.67785825 18.27033964 26.40513778 18.28674734 22.13090515 18.31669044 C18.83821849 18.33478205 15.54590234 18.3289971 12.25320435 18.31605148 C10.67757988 18.31272256 9.10192148 18.31678652 7.52633667 18.32844925 C5.32134271 18.34119011 3.11886925 18.32174223 0.9140625 18.29394531 C-0.96526978 18.28797836 -0.96526978 18.28797836 -2.88256836 18.28189087 C-7.08672679 17.47326432 -8.57845754 15.98295038 -11.18359375 12.64697266 C-11.83786386 8.57595866 -11.70446825 6.52648453 -9.59741211 2.96865845 C-6.33974008 -0.16467212 -4.47533081 0.01376157 0 0 Z " fill="#000000" transform="translate(156.18359375,369.35302734375)"/>
</svg>
