<svg width="51" height="97" viewBox="0 0 51 97" fill="none" xmlns="http://www.w3.org/2000/svg">
<path d="M13.26 83.363C9.71916 83.363 6.83984 86.2438 6.83984 89.7832C6.83984 93.3226 9.71916 96.2034 13.26 96.2034C16.8009 96.2034 19.6802 93.3226 19.6802 89.7832C19.6802 86.2438 16.8009 83.363 13.26 83.363ZM13.26 94.3514C10.7406 94.3514 8.69187 92.3026 8.69187 89.7832C8.69187 87.2638 10.7406 85.2151 13.26 85.2151C15.7794 85.2151 17.8282 87.2638 17.8282 89.7832C17.8282 92.3026 15.7794 94.3514 13.26 94.3514Z" fill="#19A4F6"/>
<path d="M37.74 83.363C34.1992 83.363 31.3213 86.2438 31.3213 89.7832C31.3213 93.3226 34.2006 96.2034 37.74 96.2034C41.2823 96.2034 44.1602 93.3226 44.1602 89.7832C44.1602 86.2438 41.2823 83.363 37.74 83.363ZM37.74 94.3514C35.2206 94.3514 33.1719 92.3026 33.1719 89.7832C33.1719 87.2638 35.2206 85.2151 37.74 85.2151C40.2594 85.2151 42.3081 87.2638 42.3081 89.7832C42.3081 92.3026 40.2609 94.3514 37.74 94.3514Z" fill="#19A4F6"/>
<path d="M43.6167 14.9343C41.2794 12.2808 38.5531 10.1942 35.5106 8.73266C33.5463 7.78989 31.5093 7.13417 29.4124 6.7728V4.71386C29.4124 4.06252 28.8864 3.53503 28.2351 3.53503H26.5987V1.10014C26.5987 0.492513 26.1062 0 25.5 0C24.8938 0 24.3999 0.492513 24.3999 1.10014V3.53503H22.7635C22.1136 3.53503 21.5861 4.06252 21.5861 4.71386V6.7728C19.4922 7.13417 17.4522 7.78843 15.4894 8.73266C12.4484 10.1927 9.72206 12.2808 7.3848 14.9343C2.62286 20.3417 0 27.5167 0 35.1375V81.6758H51V35.1375C51 27.5167 48.3771 20.3417 43.6167 14.9343ZM47.1298 77.8056H3.87163V35.1375C3.87163 21.4477 13.5733 10.3107 25.5 10.3107C37.4267 10.3107 47.1284 21.4477 47.1284 35.1375L47.1298 77.8056Z" fill="#19A4F6"/>
<path d="M45.3755 62.3687H5.47888V76.2567H45.3755V62.3687Z" fill="#19A4F6"/>
<path d="M16.253 33.5828H5.64648V61.1053H16.253V33.5828Z" fill="#19A4F6"/>
<path d="M36.4942 40.0131H26.9849V43.6836H18.1051V61.1052H45.3755V43.6836H36.4942V40.0131ZM34.5592 43.6836H28.92V41.9496H34.5592V43.6836Z" fill="#19A4F6"/>
</svg>
