<svg width="36" height="76" viewBox="0 0 36 76" fill="none" xmlns="http://www.w3.org/2000/svg">
<path fill-rule="evenodd" clip-rule="evenodd" d="M5.79728 31.4019C5.55573 43.238 4.83107 44.4458 2.41553 62.5623C-0.241553 78.9879 15.4594 80.1957 13.2854 62.5623C10.6283 44.4458 10.1452 43.238 9.66213 31.4019C12.8023 30.4357 15.4594 28.0202 15.2179 23.6722L14.0101 3.6233C14.0101 1.93243 14.0101 0.483107 12.0777 0.483107L12.5608 23.1891C12.5608 24.1553 10.3868 24.1553 10.3868 23.1891V0C9.66213 0 9.42058 0 8.69592 0V23.1891C8.69592 24.1553 6.76349 24.1553 6.76349 23.1891V0C6.28039 0 5.55573 0 5.07262 0V23.1891C5.07262 24.1553 3.14019 24.1553 3.14019 23.1891V0.483107C1.20777 0.483107 1.69087 1.93243 1.20777 3.6233L0 23.6722C0 28.0202 2.65709 30.6773 5.79728 31.4019Z" fill="white"/>
<path fill-rule="evenodd" clip-rule="evenodd" d="M31.885 25.8462C31.4019 16.4256 31.4019 7.72971 31.885 0.483107C31.4019 0.241553 30.9188 0 30.4357 0C25.6046 0 22.2229 15.9425 22.9476 35.2668C23.1891 37.6823 23.1891 39.8563 23.4307 42.2718C27.2955 43.4796 27.7786 45.1705 27.5371 47.3445C27.054 54.1079 26.3293 60.8714 24.88 67.1518C22.2229 77.7802 38.1654 78.5048 35.7499 67.1518C33.0928 53.8664 32.3681 39.3732 31.885 25.8462Z" fill="white"/>
</svg>
